# xmcd
#
# Track frame offsets: 
#        150
#        10850
#        23437
#        39434
#        53759
#        74309
#        90531
#        103220
#        119147
#        134256
#        147384
#        165305
#
# Disc length: 2377 seconds
#
# Revision: 0
# Processed by: cddbd v1.5.2PL0 Copyright (c) Steve Scherf et al.
# Submitted via: ExactAudioCopy v0.99pb5
#
DISCID=9c09470c
DTITLE=Peter Tork and Shoe Suede Blues - Cambria Hotel
DYEAR=2007
DGENRE=Blues
TTITLE0=I Know Love
TTITLE1=One More Heartache
TTITLE2=Bound to Lose
TTITLE3=Last Train to Clarksville
TTITLE4=The Mighty Are Falling
TTITLE5=Ain't Your Fault
TTITLE6=Annie Had a Baby
TTITLE7=God Given Grant
TTITLE8=For Pete's Sake
TTITLE9=Good Lookder
TTITLE10=She Belongs to Me
TTITLE11=Sea Cruise
EXTD=
EXTT0=
EXTT1=
EXTT2=
EXTT3=
EXTT4=
EXTT5=
EXTT6=
EXTT7=
EXTT8=
EXTT9=
EXTT10=
EXTT11=
PLAYORDER=
